<svg xmlns="http://www.w3.org/2000/svg" viewBox="0 0 640 640" width="640" height="640">
  <defs>
    <linearGradient id="tile" x1="0" y1="0" x2="1" y2="1">
      <stop offset="0%" stop-color="#E08A4B"/>
      <stop offset="100%" stop-color="#D8B25A"/>
    </linearGradient>
  </defs>
  <rect x="140" y="60" width="360" height="360" rx="110" fill="url(#tile)"/>
  <g transform="translate(170,90) scale(12.5)">
    <path transform="scale(-1,1) translate(-24,0)" d="M8.5 14.5A2.5 2.5 0 0 0 11 12c0-1.38-.5-2-1-3-1.072-2.143-.224-4.054 2-6 .5 2.5 2 4.9 4 6.5 2 1.6 3 3.5 3 5.5a7 7 0 1 1-14 0c0-1.153.433-2.294 1-3a2.5 2.5 0 0 0 2.5 2.5z" fill="#16201C"/>
  </g>
  <text x="320" y="560" text-anchor="middle" font-family="Georgia, 'Times New Roman', serif" font-weight="600" font-size="88" letter-spacing="-1" fill="#1C2420">gotcosy</text>
</svg>
